<svg width="131" height="115" viewBox="0 0 131 115" fill="none" xmlns="http://www.w3.org/2000/svg">
<mask id="mask0_59_64" style="mask-type:luminance" maskUnits="userSpaceOnUse" x="0" y="0" width="131" height="115">
<path d="M131 0.0209961H0.475586V114.79H131V0.0209961Z" fill="white"/>
</mask>
<g mask="url(#mask0_59_64)">
<path d="M7.41878 97.7668C7.23143 97.6746 7.03379 97.6053 6.83048 97.5596C1.96174 97.2493 -0.257773 94.6405 0.726338 89.8538C1.30407 87.0946 2.2186 84.4165 3.44964 81.8794C4.22036 80.286 5.80789 79.0879 6.98779 77.7562C6.59725 76.0502 5.83249 74.2165 5.85632 72.3915C5.87911 70.6255 6.71317 68.8699 7.22957 66.9679C3.38741 63.3874 3.2806 62.6212 6.00399 56.4112C4.49675 54.8546 4.33081 52.9702 4.56647 50.8278C5.21702 44.9234 5.99347 39.0515 8.25483 33.5115C14.0042 19.4295 24.198 9.76624 38.4464 4.7324C55.7487 -1.37983 73.2162 -1.47138 90.4398 5.24571C98.3977 8.34757 105.423 12.973 110.439 20.0691C112.425 22.7742 114.092 25.6986 115.406 28.7848C117.149 33.1124 118.39 37.6489 119.696 42.1398C120.605 45.264 120.888 48.4269 118.609 51.3618C120.737 53.0788 122.588 54.79 123.482 57.2994C124.407 59.8957 123.708 62.1554 122.22 64.4083C124.943 67.1835 125.333 70.4353 124.114 74.1131C126.419 75.8755 128.528 77.8989 129.479 80.7625C130.029 82.2465 130.383 83.7958 130.534 85.3712C130.823 90.4469 128.829 92.6997 123.891 93.2778C123.772 95.555 123.75 97.8243 123.517 100.071C123.044 104.645 120.387 107.614 116.046 108.694C111.916 109.677 107.727 110.402 103.506 110.866C95.5914 111.816 87.6644 112.701 79.7199 113.33C66.6329 114.364 53.5184 114.832 40.4105 113.704C33.0898 113.074 25.7823 112.271 18.487 111.394C16.3864 111.084 14.3257 110.547 12.3418 109.791C11.1497 109.401 10.0996 108.668 9.32414 107.684C8.54872 106.699 8.0824 105.508 7.98376 104.26C7.71028 102.09 7.59747 99.8966 7.41878 97.7668ZM114.94 48.7939C113.813 44.0714 112.897 39.5861 111.651 35.1944C110.441 30.6568 108.365 26.3951 105.535 22.6436C100.592 16.2522 94.0029 12.2725 86.6045 9.49843C75.3915 5.29488 63.7936 4.53544 52.0645 6.47152C35.7287 9.16501 22.6759 16.8064 14.702 31.8892C11.514 37.9188 10.0268 44.3825 8.85933 51.1818C9.71422 51.5366 10.5983 51.8179 11.5012 52.0226C14.4753 52.4175 17.4674 53.0395 20.4435 52.9909C32.1306 52.7986 43.8134 52.3534 55.4996 52.0603C64.975 51.8225 74.452 51.6735 83.9285 51.4723C92.6053 51.2888 101.286 51.1261 109.884 49.7622C111.519 49.5022 113.138 49.1418 114.94 48.7939ZM106.902 89.9263C105.457 91.0408 104.092 91.9939 102.84 93.0817C100.564 95.054 98.142 95.3911 95.492 93.956C94.4606 93.4487 93.4639 92.8737 92.509 92.2349C90.0808 90.469 87.7243 90.3036 85.1651 92.0349C83.455 93.136 81.6762 94.1293 79.8407 95.006C78.3506 95.8062 76.6875 96.2308 74.9953 96.241C73.3037 96.2513 71.6348 95.848 70.1354 95.0658C68.7887 94.4026 67.4601 93.6914 66.1797 92.9092C65.4453 92.4051 64.586 92.1144 63.6962 92.0695C62.8063 92.0231 61.9211 92.2247 61.1385 92.6508C59.5722 93.4637 58.0064 94.2931 56.5178 95.236C55.4188 95.9953 54.1384 96.4521 52.8056 96.5616C51.4733 96.6703 50.1353 96.4269 48.9269 95.8559C47.3841 95.1934 45.9186 94.364 44.5561 93.3842C42.2886 91.6962 39.9977 91.5914 37.6027 92.8777C36.2042 93.6291 34.8774 94.5184 33.5355 95.3722C30.0823 97.5706 26.687 97.3966 23.3514 95.132C22.547 94.5861 21.7876 93.9726 21.0236 93.3692C19.0305 91.7954 16.9587 91.7773 14.8759 93.1234C13.9395 93.7292 13.0984 94.4806 12.348 95.0619C12.6587 97.039 12.881 98.7025 13.1815 100.351C13.8398 103.966 14.067 104.182 17.6145 104.93C17.8734 104.985 18.1419 104.998 18.4035 105.044C29.4098 106.899 40.5395 107.932 51.6997 108.134C69.6412 108.574 87.4158 106.456 105.174 104.26C107.889 103.924 110.585 103.384 113.263 102.816C115.209 102.402 116.273 101.068 116.464 99.0837C116.619 97.4525 116.75 95.8189 116.905 94.0277C112.854 94.4727 109.815 92.8659 106.902 89.9263ZM5.80168 92.5626C7.00954 91.9514 7.95401 91.5347 8.83502 91.0117C9.74555 90.469 10.5695 89.7829 11.4739 89.2284C15.8434 86.5495 19.7538 86.7929 23.7353 89.9641C24.2878 90.4052 24.8368 90.8518 25.3828 91.3039C27.1718 92.7824 29.0239 92.906 30.9968 91.6458C32.3891 90.7069 33.8313 89.8436 35.3174 89.0606C39.2828 87.0962 43.1388 87.1174 46.7898 89.9137C47.7168 90.5911 48.6958 91.1952 49.7174 91.7198C50.4419 92.1562 51.2806 92.3657 52.1256 92.3208C52.9704 92.2767 53.7825 91.9797 54.4569 91.4693C55.9129 90.4674 57.4517 89.5907 59.0569 88.8488C62.234 87.4144 65.3925 87.401 68.4054 89.4135C69.2124 89.9531 70.0857 90.3926 70.918 90.8951C72.0295 91.6379 73.3322 92.0443 74.6695 92.0648C76.0069 92.0861 77.322 91.7214 78.4563 91.0141C80.1429 90.0444 81.8554 89.115 83.5016 88.0808C87.0236 85.8706 90.454 85.9824 93.991 88.1099C98.3345 90.7234 98.3701 90.6651 102.388 87.6665C105.755 85.153 108.286 85.0703 111.9 87.3821C112.909 88.0272 113.886 88.7259 114.957 89.4529C116.355 87.7129 116.746 84.8647 119.272 85.0404C121.24 85.1774 123.139 86.3534 125.124 87.0883C127.111 84.1038 125.369 79.0556 121.749 77.1338C118.804 78.0127 116.149 79.0415 113.399 79.5881C103.126 81.6329 92.6652 81.985 82.261 82.8561C77.1769 83.2823 72.0787 82.6584 66.9997 83.2736C66.0368 83.3894 64.9905 82.7837 63.978 82.5293C62.9876 82.2796 61.991 81.8448 60.9981 81.8463C50.4593 81.866 39.9174 82.1016 29.3822 81.9637C24.358 81.8983 19.3407 81.1296 14.315 80.7531C13.3582 80.6743 12.3957 80.7995 11.4905 81.1185C7.78668 82.5119 5.4448 87.0584 5.80168 92.5642V92.5626ZM41.3746 57.4286C41.4042 57.6065 41.4336 57.7843 41.4625 57.9622C48.5829 63.4757 55.6663 69.0374 62.838 74.4827C66.5418 77.2951 66.016 78.2939 70.0535 73.9844C74.7669 68.9562 79.2583 63.7234 83.8354 58.5696C84.2236 58.1322 84.529 57.621 85.2306 56.6491L41.3746 57.4286ZM56.2687 76.5635C53.5427 74.2775 51.2855 72.4458 49.1049 70.5273C48.1006 69.6433 47.0802 69.4541 45.7382 69.4758C35.9179 69.6309 26.094 70.622 16.2705 69.4215C15.0724 69.2752 13.8161 69.5642 12.5927 69.6857C11.4051 69.803 10.9659 70.6101 10.8649 71.6807C10.7277 73.1355 11.3288 74.1653 12.9888 74.5933C15.0271 75.1889 17.1239 75.5632 19.2427 75.71C30.6599 76.1169 42.0842 76.3898 53.5029 76.6974C54.1871 76.7181 54.8765 76.6369 56.2687 76.5656V76.5635ZM119.115 66.802C115.825 67.6431 112.788 68.7174 109.662 69.162C100.648 70.4839 91.5462 71.1291 82.4346 71.0919C81.8475 71.0365 81.2596 71.1896 80.7742 71.5235C79.0744 73.2673 77.483 75.1155 75.6417 77.1622C78.302 77.1622 80.4972 77.3002 82.6706 77.1374C90.6087 76.5445 98.5531 75.9871 106.466 75.1356C110.242 74.7231 113.972 73.9642 117.608 72.8687C120.889 71.8854 121.314 69.4794 119.115 66.804V66.802ZM86.0979 65.1446C87.3006 65.1446 88.0068 65.1833 88.7068 65.1383C94.5324 64.7666 100.382 64.5976 106.172 63.9172C109.839 63.3997 113.452 62.5472 116.963 61.3706C119.214 60.6711 119.656 59.3776 119.027 57.5083C118.294 55.3318 116.715 54.2068 114.78 54.5702C108.519 55.7495 102.167 56.3745 95.7966 56.4386C94.5726 56.4505 93.3502 56.556 92.5579 56.5937L86.0979 65.1446ZM11.0419 56.4996C10.4125 57.624 9.84664 58.7826 9.34742 59.9706C8.75492 61.6353 8.97281 62.1843 10.7116 62.769C12.4683 63.3625 14.2786 63.7854 16.1167 64.032C23.6136 65.0143 31.1422 64.5841 38.6629 64.3665C39.3426 64.2843 40.0163 64.156 40.6785 63.9824C39.4655 63.0643 38.6495 62.4082 37.7939 61.8085C36.4907 60.895 34.9115 60.2338 33.9092 59.0685C32.8734 57.8655 31.7959 57.7409 30.4388 57.7394C24.0732 57.7337 17.6842 58.1508 11.0419 56.4996Z" fill="white"/>
<path d="M54.4863 18.3802C54.6049 17.353 54.4252 16.2777 55.6527 15.8868C56.8539 15.5043 57.7628 16.0967 58.2586 17.1478C58.7961 18.2507 59.2183 19.4066 59.5166 20.5966C59.7694 21.6709 59.5565 22.7503 58.3455 23.2414C57.2765 23.6746 56.1184 23.1782 55.5543 21.8864C55.127 20.7406 54.7707 19.5696 54.4863 18.3802Z" fill="white"/>
<path d="M35.2169 32.6392C35.61 32.9131 36.5693 33.2326 36.7232 33.7765C36.8165 34.1761 36.8214 34.5912 36.7378 34.9929C36.6543 35.3947 36.484 35.7733 36.2392 36.1029C34.923 37.5158 33.0518 37.9641 31.1835 38.0338C29.8327 38.0855 29.2319 36.5403 30.1477 35.281C31.2825 33.7239 32.912 32.8816 35.2169 32.6392Z" fill="white"/>
<path d="M99.1339 44.5796C98.2769 43.9431 97.3244 43.5803 97.0829 42.9474C96.8904 42.4429 97.3789 41.3568 97.8965 40.9747C98.9438 40.1762 100.131 39.5829 101.4 39.2262C102.064 39.0562 103.313 39.4848 103.608 40.0229C103.727 40.4149 103.743 40.8307 103.656 41.2308C103.569 41.631 103.381 42.0025 103.111 42.3101C102.002 43.2246 100.595 43.7803 99.1339 44.5796Z" fill="white"/>
<path d="M70.3394 36.3362C70.2659 34.6157 71.5597 33.755 72.9769 34.4023C74.2691 34.9921 75.7552 37.8805 75.5086 39.3219C75.2874 40.6143 74.02 41.2899 72.9603 40.5475C71.5778 39.5313 70.6393 38.0236 70.3394 36.3362Z" fill="white"/>
<path d="M95.3129 24.725C95.3027 26.2656 93.1893 28.3847 91.6623 28.3806C90.6995 28.378 89.7904 27.312 90.2678 26.3406C90.8502 25.0971 91.7167 24.0075 92.7987 23.1591C93.9508 22.3226 95.3232 23.3116 95.3129 24.725Z" fill="white"/>
<path d="M48.7888 47.7383C47.1599 47.6458 45.2534 45.7194 45.2851 44.3857C45.3014 44.1217 45.3713 43.8638 45.4899 43.6272C45.6085 43.3908 45.7735 43.1808 45.9755 43.0095C46.1774 42.8384 46.4124 42.7096 46.6654 42.631C46.9185 42.5525 47.1848 42.5258 47.4485 42.5525C48.7319 42.7169 50.2016 44.6255 50.1602 46.0829C50.1311 47.0941 49.7844 47.8143 48.7888 47.7383Z" fill="white"/>
</g>
</svg>
