<svg width="44" height="48" viewBox="0 0 44 48" fill="none" xmlns="http://www.w3.org/2000/svg">
<path d="M3.51429 17.2849C3.51914 17.414 3.56598 17.538 3.64769 17.6381C3.67774 17.6948 3.71335 17.7484 3.75399 17.7981C3.80346 17.8444 3.85751 17.8856 3.91529 17.9209C3.95566 17.9577 3.99916 17.9909 4.04529 18.0201C4.05399 18.0244 4.06359 18.0224 4.07239 18.0263C4.08319 18.0312 4.08989 18.0409 4.10099 18.0455C4.35389 18.1495 10.4135 20.6007 20.1298 20.6007C30.9647 20.6007 35.8256 19.3814 36.0272 19.3292C36.2814 19.2608 36.4984 19.095 36.631 18.8676C36.7637 18.6403 36.8014 18.3698 36.7359 18.1148C36.6704 17.8599 36.5071 17.641 36.2812 17.5057C36.0554 17.3704 35.7854 17.3297 35.5297 17.3922C35.4823 17.4044 30.6659 18.6007 20.1297 18.6007C15.3416 18.6457 10.5741 17.9674 5.98849 16.5888C6.5561 15.6969 7.38741 15.0038 8.36694 14.606C9.34647 14.2082 10.4256 14.1253 11.4544 14.3688C16.2884 15.6134 22.4681 14.4327 22.7283 14.3819C22.8584 14.358 22.9824 14.3086 23.0933 14.2365C23.2041 14.1643 23.2995 14.0709 23.374 13.9616C23.4485 13.8523 23.5006 13.7294 23.5272 13.5998C23.5539 13.4703 23.5546 13.3368 23.5292 13.207C23.5039 13.0771 23.4531 12.9536 23.3797 12.8436C23.3064 12.7336 23.2119 12.6392 23.1018 12.5659C22.9917 12.4926 22.8682 12.4419 22.7384 12.4167C22.6086 12.3915 22.475 12.3923 22.3455 12.419C19.1253 13.0077 15.8301 13.0601 12.5928 12.5743C12.4868 11.4643 12.5338 9.13773 14.5691 8.08953C15.2562 7.7413 15.9809 7.47288 16.7291 7.28953C16.7427 7.45297 16.7965 7.61052 16.8857 7.74815C16.9749 7.88578 17.0967 7.99923 17.2404 8.07841C17.384 8.15758 17.545 8.20003 17.709 8.20197C17.873 8.20391 18.0349 8.16528 18.1804 8.08953C18.3713 7.99083 22.4504 5.85803 24.2111 2.45373C25.9782 3.63373 29.5798 6.59823 28.778 10.7301C28.7497 10.8603 28.7477 10.9948 28.7721 11.1258C28.7965 11.2567 28.8468 11.3815 28.9201 11.4927C28.9934 11.604 29.0882 11.6994 29.1989 11.7735C29.3096 11.8476 29.4339 11.8989 29.5647 11.9243C29.6955 11.9496 29.83 11.9486 29.9604 11.9213C30.0908 11.8939 30.2144 11.8408 30.3239 11.7651C30.4335 11.6893 30.5268 11.5924 30.5984 11.4801C30.67 11.3677 30.7185 11.2422 30.7409 11.1109C32.0725 4.25353 24.5209 0.277026 24.1989 0.110926C24.0699 0.0445306 23.928 0.00698293 23.783 0.000884449C23.6381 -0.00521403 23.4935 0.0202822 23.3594 0.0756077C23.2252 0.130933 23.1048 0.214764 23.0062 0.321289C22.9077 0.427815 22.8336 0.554487 22.7889 0.692526C22.0587 2.45208 20.8284 3.95876 19.2503 5.02593C19.1467 4.98591 19.0372 4.96377 18.9262 4.96043C17.0915 5.02356 15.2923 5.48438 13.6532 6.31103C12.6259 6.89669 11.7887 7.76543 11.2414 8.81367C10.6941 9.86191 10.4598 11.0454 10.5664 12.2231C6.89639 12.0239 4.43449 14.9273 3.58239 16.6841C3.57749 16.6941 3.57879 16.7054 3.57419 16.7157C3.56959 16.726 3.56149 16.7311 3.55749 16.7407C3.54275 16.7927 3.53248 16.8458 3.52679 16.8995C3.50682 16.9652 3.49375 17.0327 3.48779 17.101C3.49065 17.163 3.49953 17.2246 3.51429 17.2849Z" fill="white"/>
<path d="M43.4701 23.68C43.8022 22.7691 43.9813 21.8095 44.0001 20.84C43.9989 19.3273 43.5336 17.8514 42.6671 16.6114C41.8006 15.3715 40.5745 14.4272 39.1544 13.906C38.8595 10.9245 36.7413 8.77902 33.1144 7.82342C32.8596 7.76071 32.5904 7.80063 32.3649 7.93456C32.1393 8.0685 31.9753 8.28572 31.9084 8.5394C31.8415 8.79308 31.877 9.0629 32.0072 9.29067C32.1374 9.51845 32.3519 9.68593 32.6044 9.75702C35.6469 10.5588 37.1893 12.2019 37.1893 14.6403C37.1893 14.862 37.2629 15.0775 37.3987 15.2527C37.5345 15.428 37.7246 15.5532 37.9393 15.6086C37.9811 15.6191 42.0001 16.7026 42.0001 20.84C42.0151 21.9192 41.6939 22.9764 41.0812 23.8649C41.0268 23.9294 40.9812 24.0007 40.9454 24.0771C25.4819 27.9765 8.34609 25.0751 3.03329 23.9885L2.78969 23.8317C2.44489 23.2854 1.32969 21.2551 2.57969 19.6228C2.73893 19.4121 2.80835 19.147 2.77278 18.8852C2.73721 18.6235 2.59955 18.3865 2.38985 18.2259C2.18015 18.0654 1.91544 17.9943 1.6535 18.0282C1.39157 18.0621 1.15369 18.1982 0.991791 18.4069C-1.35731 21.4738 1.15829 25.0012 1.26619 25.1496C1.33924 25.2502 1.43052 25.3361 1.53529 25.403L2.11099 25.7722C2.21381 25.8385 2.32805 25.885 2.44789 25.9094C7.68179 26.9948 25.6012 30.1076 41.7418 25.9416C41.128 29.3981 39.6318 37.6936 38.798 41.1584C38.7426 41.7772 38.5395 42.3737 38.2058 42.8978C37.8721 43.4218 37.4174 43.8581 36.8801 44.17C37.3459 42.5245 37.7153 40.8532 37.9864 39.1646C38.0096 39.0344 38.0067 38.9009 37.978 38.7719C37.9492 38.6428 37.8952 38.5207 37.8189 38.4126C37.7427 38.3046 37.6457 38.2128 37.5337 38.1424C37.4218 38.0721 37.2969 38.0247 37.1665 38.0029C37.0361 37.9811 36.9026 37.9855 36.7738 38.0156C36.6451 38.0458 36.5236 38.1012 36.4164 38.1786C36.3092 38.256 36.2184 38.3539 36.1493 38.4667C36.0802 38.5794 36.0341 38.7048 36.0138 38.8354C35.7153 40.9885 35.1746 43.101 34.402 45.1327C31.3068 45.8364 24.1701 46 21.4601 46C18.6159 46 15.6079 45.8672 12.9983 45.6227C11.9101 44.9211 11.117 41.1638 11.0001 37.9639C10.9905 37.6988 10.876 37.4484 10.6818 37.2677C10.4876 37.0871 10.2296 36.991 9.96449 37.0005C9.69941 37.0101 9.44898 37.1246 9.26831 37.3188C9.08764 37.513 8.99152 37.771 9.00109 38.0361C9.05933 40.5261 9.53486 42.9887 10.4079 45.3213C10.1438 45.2836 9.88229 45.2453 9.63569 45.2047C8.39299 43.7882 7.35969 38.1713 6.99429 34.8896C6.96036 34.63 6.82592 34.394 6.61986 34.2323C6.41381 34.0707 6.15258 33.9964 5.8923 34.0253C5.63203 34.0542 5.39348 34.1841 5.22792 34.387C5.06236 34.5899 4.983 34.8496 5.00689 35.1104C5.33093 38.3425 6.01971 41.5275 7.06009 44.6047C6.68284 44.5001 6.33208 44.3166 6.03099 44.0664C4.79559 42.7817 3.75749 35.6421 3.07099 30.917C2.91529 29.8433 2.76529 28.8115 2.61889 27.867C2.59882 27.7372 2.55338 27.6127 2.48517 27.5005C2.41696 27.3882 2.32731 27.2905 2.22134 27.213C2.11538 27.1354 1.99517 27.0794 1.86758 27.0483C1.73999 27.0172 1.60753 27.0115 1.47774 27.0316C1.34796 27.0516 1.2234 27.0971 1.11117 27.1653C0.998946 27.2335 0.901255 27.3232 0.823677 27.4291C0.746098 27.5351 0.69015 27.6553 0.659028 27.7829C0.627906 27.9105 0.622219 28.0429 0.642292 28.1727C0.787792 29.1116 0.936691 30.1375 1.09229 31.2049C2.15629 38.5242 3.03029 43.8304 4.58939 45.4519C6.91559 47.877 19.0509 48 21.4601 48C21.9068 48 32.4371 47.9868 35.7877 46.8247C39.2521 45.6235 40.1163 44.249 40.7423 41.624C41.8175 37.154 43.8971 25.2368 43.9855 24.7319C44.0232 24.5245 43.9935 24.3105 43.9008 24.1212C43.808 23.9319 43.6571 23.7773 43.4701 23.68Z" fill="white"/>
</svg>
