<svg width="132" height="132" viewBox="0 0 132 132" fill="none" xmlns="http://www.w3.org/2000/svg">
<path d="M66 0.1875C29.6449 0.1875 0.1875 29.6449 0.1875 66C0.1875 102.355 29.6449 131.812 66 131.812C102.355 131.812 131.812 102.355 131.812 66C131.812 29.6449 102.355 0.1875 66 0.1875ZM66 126.339C32.7457 126.339 5.66133 99.2859 5.66133 66C5.66133 32.7457 32.7141 5.66133 66 5.66133C99.2543 5.66133 126.339 32.7141 126.339 66C126.339 99.2543 99.2543 126.339 66 126.339Z" fill="white"/>
<path d="M66 66H35.625V71.4738H71.4738V25.5H66V66Z" fill="white"/>
</svg>
