<svg width="44" height="36" viewBox="0 0 44 36" fill="none" xmlns="http://www.w3.org/2000/svg">
<path d="M34.1149 8.49584C33.3082 8.49584 32.5015 8.5985 31.7242 8.78917C31.4602 6.5745 30.4629 4.53584 28.8642 2.95184C26.8255 0.957171 24.0682 -0.0548294 21.1789 0.179837C19.1842 0.341171 17.2922 1.1185 15.7522 2.3945C13.5375 4.2425 12.2615 6.8825 12.2029 9.72784C12.2029 9.80117 12.2029 9.85984 12.2029 9.93317C12.2029 11.1358 12.4082 12.2945 12.8335 13.4092C12.9802 13.8052 13.4495 13.9958 13.8309 13.8052C14.1682 13.6438 14.3442 13.2478 14.1975 12.8958C13.8455 11.9572 13.6549 10.9598 13.6549 9.93317C13.6549 9.88917 13.6549 9.8305 13.6549 9.7865V9.75717C13.7429 5.2545 17.4829 1.6025 21.9855 1.6025C26.3122 1.6025 29.9349 4.9905 30.2869 9.2585C29.1869 9.72784 28.1749 10.3878 27.3242 11.2092C27.0162 11.5025 27.0309 12.0012 27.3535 12.2798C27.6469 12.5292 28.0722 12.5292 28.3509 12.2652C29.2015 11.4585 30.2135 10.8278 31.3135 10.4318C32.2082 10.1092 33.1615 9.94784 34.1149 9.94784C38.7495 9.94784 42.5189 13.7612 42.4455 18.4105C42.3722 22.9865 38.5589 26.6092 33.9975 26.6092H26.6202C26.9575 26.1692 27.2509 25.6998 27.5149 25.1865C27.7055 24.8052 27.5442 24.3358 27.1482 24.1745C26.7962 24.0278 26.3855 24.1745 26.2095 24.5118C24.7869 27.2545 21.9562 28.9998 18.8175 28.9998C15.7375 28.9998 12.9362 27.2985 11.4842 24.6292C11.3082 24.2918 10.8975 24.1598 10.5455 24.3065C10.1495 24.4825 9.9882 24.9518 10.1935 25.3332C10.4429 25.7878 10.7069 26.2132 11.0149 26.6092H10.0175C5.44154 26.6092 1.6282 22.9865 1.56954 18.4105C1.4962 13.7612 5.26554 9.94784 9.9002 9.94784C9.97354 9.94784 10.0615 9.94784 10.1349 9.94784C10.4869 9.9625 10.7949 9.6985 10.8682 9.3465C10.9562 8.9065 10.6335 8.49584 10.1789 8.48117C10.0909 8.48117 9.9882 8.48117 9.88554 8.48117C4.42954 8.48117 0.000203021 12.9545 0.088203 18.4252C0.176203 23.7932 4.64954 28.0612 10.0322 28.0612H12.3789C14.1242 29.5718 16.3975 30.4665 18.8029 30.4665C21.2229 30.4665 23.4815 29.5865 25.2269 28.0612H33.4989V33.7078C33.4989 34.0745 33.2055 34.3678 32.8389 34.3678H11.1469C10.7802 34.3678 10.4869 34.0745 10.4869 33.7078V29.7625C10.4869 29.3518 10.1642 29.0292 9.75354 29.0292C9.34287 29.0292 9.0202 29.3518 9.0202 29.7625V33.7078C9.0202 34.8812 9.97354 35.8345 11.1469 35.8345H32.8535C34.0269 35.8345 34.9802 34.8812 34.9802 33.7078V28.0025C39.8935 27.5038 43.8242 23.4412 43.9122 18.4105C43.9855 12.9692 39.5709 8.49584 34.1149 8.49584Z" fill="white"/>
</svg>
