<svg width="50" height="51" viewBox="0 0 50 51" fill="none" xmlns="http://www.w3.org/2000/svg">
<path d="M25.2004 12.7002C18.2004 12.7002 12.4004 18.4002 12.4004 25.5002C12.4004 32.6002 18.1004 38.3002 25.2004 38.3002C32.3004 38.3002 38.0004 32.5002 38.0004 25.5002C38.0004 18.5002 32.2004 12.7002 25.2004 12.7002ZM25.2004 33.7002C20.7004 33.7002 17.0004 30.0002 17.0004 25.5002C17.0004 21.0002 20.7004 17.3002 25.2004 17.3002C29.7004 17.3002 33.4004 21.0002 33.4004 25.5002C33.4004 30.0002 29.7004 33.7002 25.2004 33.7002Z" fill="white"/>
<path d="M38.5006 15.3C40.1022 15.3 41.4006 14.0016 41.4006 12.4C41.4006 10.7984 40.1022 9.5 38.5006 9.5C36.899 9.5 35.6006 10.7984 35.6006 12.4C35.6006 14.0016 36.899 15.3 38.5006 15.3Z" fill="white"/>
<path d="M46.0004 4.8998C43.4004 2.1998 39.7004 0.799805 35.5004 0.799805H14.9004C6.20039 0.799805 0.400391 6.5998 0.400391 15.2998V35.7998C0.400391 40.0998 1.80039 43.7998 4.60039 46.4998C7.30039 49.0998 10.9004 50.3998 15.0004 50.3998H35.4004C39.7004 50.3998 43.3004 48.9998 45.9004 46.4998C48.6004 43.8998 50.0004 40.1998 50.0004 35.8998V15.2998C50.0004 11.0998 48.6004 7.4998 46.0004 4.8998ZM45.6004 35.8998C45.6004 38.9998 44.5004 41.4998 42.7004 43.1998C40.9004 44.8998 38.4004 45.7998 35.4004 45.7998H15.0004C12.0004 45.7998 9.50039 44.8998 7.70039 43.1998C5.90039 41.3998 5.00039 38.8998 5.00039 35.7998V15.2998C5.00039 12.2998 5.90039 9.7998 7.70039 7.9998C9.40039 6.2998 12.0004 5.3998 15.0004 5.3998H35.6004C38.6004 5.3998 41.1004 6.2998 42.9004 8.0998C44.6004 9.8998 45.6004 12.3998 45.6004 15.2998V35.8998Z" fill="white"/>
</svg>
