<svg width="384" height="460" viewBox="0 0 384 460" fill="none" xmlns="http://www.w3.org/2000/svg">
<path fill-rule="evenodd" clip-rule="evenodd" d="M285.535 59.74C272.578 47.095 256.974 37.159 239.644 30.793H239.615L239.571 30.764H239.525L239.288 30.674L239.259 30.644H239.213L238.559 30.407L238.233 30.288L237.905 30.169L237.579 30.05L237.31 29.96L237.236 29.931L236.908 29.842L236.582 29.723L236.254 29.605L235.928 29.486L235.823 29.456L235.6 29.396L235.273 29.277L234.931 29.158L234.603 29.068L234.321 28.979L234.261 28.951L233.934 28.861L233.606 28.742L233.264 28.623L232.938 28.533L232.834 28.504L232.595 28.444L232.579 28.414L231.925 28.236L231.583 28.117L231.316 28.057L231.255 28.027L230.913 27.939L229.902 27.641L229.797 27.611L228.281 27.195H228.205L226.852 26.838L226.747 26.809L226.495 26.748L225.216 26.421H225.126L222.375 25.797L222.032 25.708C220.054 25.291 218.105 24.904 216.112 24.576L215.829 24.547H215.756L215.428 24.487L214.713 24.369L214.373 24.308H214.254L214.03 24.249L213.33 24.159L212.988 24.1L212.662 24.07H212.632L212.275 24.01L211.59 23.92L211.234 23.891L211.055 23.862L210.52 23.801L210.178 23.742L209.479 23.682H209.45L209.122 23.622L208.766 23.593L208.408 23.563L208.053 23.503H207.844L207.71 23.473L207.353 23.445L206.997 23.415L206.639 23.385L206.297 23.356H206.239L205.94 23.327L205.585 23.297L205.227 23.267L204.871 23.238L204.602 23.208H204.513L204.157 23.178L203.799 23.149H203.444L203.086 23.12H202.982L202.729 23.091L202.001 23.062L201.643 23.031L201.346 23.002H201.286H200.929L200.557 22.973H200.201L199.843 22.943H199.71H199.487L199.131 22.913H198.759H198.401L198.075 22.884H198.029H197.315H196.959L196.587 22.855H196.424H196.215H195.86H195.502H195.13H194.774H194.403H194.045H193.689H193.317H193.125H192.946L192.59 22.884H192.232H191.504H191.474L191.132 22.913H190.774H190.418L190.062 22.943H189.823H189.704L189.332 22.973H188.976L188.618 23.002H188.246H188.186L187.89 23.031L187.532 23.062L186.82 23.091L186.551 23.12H186.462L186.106 23.149H185.748L185.392 23.178L185.034 23.208H184.93L184.678 23.238L184.32 23.267L183.964 23.297L183.608 23.327L183.31 23.356H183.25L182.894 23.385L182.536 23.415L182.18 23.445L181.838 23.473L181.703 23.503H181.48L181.124 23.563L180.782 23.593L180.424 23.622L180.098 23.682H180.068L179.354 23.742L179.012 23.801L178.477 23.862L178.314 23.891L177.956 23.92L177.257 24.01L176.915 24.07H176.885L176.557 24.1L176.201 24.159L175.516 24.249L175.293 24.308H175.16L174.818 24.369L174.118 24.487L173.776 24.547H173.702L173.434 24.576L170.639 25.083L170.55 25.111L169.925 25.201L169.567 25.291L169.225 25.351L168.988 25.411H168.869L168.527 25.5L167.471 25.709L167.427 25.737L167.129 25.798L166.773 25.857L164.332 26.422L162.95 26.779L162.786 26.809L159.736 27.612L159.513 27.673L159.185 27.79L158.234 28.059H158.159L157.817 28.178L157.475 28.267L157.133 28.386L156.807 28.476L156.718 28.505L156.465 28.595L156.123 28.683L155.795 28.802L155.453 28.892L155.216 28.981L155.112 29.011L154.784 29.1L154.442 29.22L154.115 29.337L153.773 29.427L153.713 29.457L153.444 29.546L153.102 29.665L152.775 29.784L152.433 29.903L152.238 29.962L152.105 29.992L151.779 30.111L151.451 30.231L151.124 30.348L150.782 30.468H150.766L150.44 30.587L150.112 30.705C132.663 37.07 117 47.037 103.983 59.74C102.407 61.316 100.905 62.863 99.3584 64.5L99.1654 64.678C96.2784 67.832 93.5274 71.104 90.9384 74.526C89.7494 76.102 88.6034 77.71 87.4734 79.316L87.3244 79.553L87.0274 80L86.8784 80.207L86.7294 80.446L86.5804 80.654L86.4314 80.861L86.2844 81.1L86.1354 81.308L86.0464 81.456L85.9864 81.546L85.8374 81.755L85.6904 81.992L85.5414 82.229L85.3924 82.437L85.2434 82.646V82.706L85.1094 82.884L84.6774 83.57L84.5284 83.777L84.4404 83.957L84.3954 84.016L83.6974 85.147L83.6514 85.207L83.5474 85.354C72.4504 103.562 66.0244 124.447 64.8354 145.778H324.673C323.483 123.674 316.759 103.027 305.87 85.207L305.81 85.117L305.528 84.641L305.394 84.432L305.096 83.957L304.947 83.719L304.813 83.51L304.665 83.272L304.531 83.035L304.382 82.827L304.293 82.708L304.233 82.589L304.086 82.351L303.937 82.142L303.788 81.905L303.639 81.668L303.491 81.459L303.344 81.221L303.179 80.984L303.032 80.776L302.883 80.538L302.72 80.329L302.66 80.21L302.57 80.092L302.422 79.854L302.273 79.646C301.083 77.919 299.835 76.195 298.585 74.529C295.104 69.947 291.325 65.575 287.325 61.528C287.176 61.409 287.042 61.26 286.923 61.111L285.535 59.74ZM298.148 62.447C298.892 63.31 299.621 64.172 300.365 65.035L300.454 65.154L300.543 65.244L300.558 65.273L300.663 65.392L300.842 65.629L300.959 65.748L301.049 65.868L301.139 65.985L301.258 66.105L301.348 66.224L301.437 66.342L301.541 66.491L301.734 66.728L301.839 66.847L301.926 66.966L302.031 67.085L302.121 67.204L302.225 67.323L302.329 67.442L302.419 67.56L302.509 67.68L302.582 67.769L302.612 67.799L302.701 67.917L302.806 68.036L302.893 68.184L302.983 68.303L303.088 68.422L303.192 68.54L303.282 68.659L303.372 68.779L303.461 68.897L303.565 69.016L303.58 69.046L303.669 69.135L303.758 69.254L303.848 69.402L303.938 69.521L304.028 69.64L304.132 69.759L304.236 69.878L304.326 69.997L304.415 70.115L304.564 70.324L304.578 70.354L304.713 70.532L304.861 70.711L305.009 70.919L305.142 71.097L305.292 71.306L305.425 71.484L305.544 71.664L305.573 71.693L305.723 71.902L305.871 72.08L306.004 72.289L306.154 72.496L306.287 72.676L306.436 72.883L306.496 72.973L306.586 73.092L306.732 73.271L306.868 73.479L307 73.691L307.148 73.9L307.297 74.079L307.431 74.287L307.445 74.318L307.564 74.496L307.712 74.703L307.846 74.883L307.995 75.091L308.128 75.299L308.264 75.508L308.679 76.102L308.813 76.311L308.962 76.52L309.095 76.727L309.378 77.144L309.497 77.352L309.646 77.561L309.78 77.769L309.915 77.977L310.852 79.435L310.986 79.643C311.73 80.832 312.474 82.024 313.188 83.243C323.689 81.13 332.97 75.509 339.753 67.684C346.908 59.383 351.268 48.5839 351.268 36.8019L351.238 35.047C347.49 41.503 342.447 47.154 336.482 51.588C327.363 58.401 316.073 62.447 303.876 62.447H298.148ZM324.851 153.096H64.6844V172.165H324.851V153.096ZM304.739 318.507L293.254 311.872C280.848 333.382 268.443 354.861 256.038 376.371L267.521 383.006C279.928 361.496 292.333 340.016 304.739 318.507ZM266.494 343.646L219.905 316.722L202.828 325.409L260.172 354.564L266.494 343.646ZM227.656 312.795L270.138 337.339L276.46 326.391L243.333 304.823L227.656 312.795ZM170.908 280.039L188.073 268.853L73.1044 194.032L12.9794 193.051L43.8894 244.608L145.754 296.403L164.065 284.473L60.3724 224.616C58.6454 223.635 58.0364 221.403 59.0334 219.647C60.0304 217.922 62.2764 217.327 64.0014 218.309L170.908 280.039ZM96.2784 311.872L84.7954 318.507C97.2014 340.016 109.607 361.496 122.013 383.006L133.496 376.371C121.09 354.861 108.685 333.382 96.2784 311.872ZM325.503 218.309C327.26 217.297 329.49 217.891 330.502 219.647C331.499 221.374 330.904 223.604 329.164 224.616L123.024 343.646L129.331 354.594C166.861 335.524 204.376 316.424 241.906 297.355L242.053 297.295L345.644 244.607L376.555 193.05L316.429 194.031L196.82 271.859L196.655 271.976C180.53 282.479 147.926 303.691 147.955 303.662C136.381 310.623 124.452 318.953 113.057 326.391L119.366 337.339L325.503 218.309ZM199.155 49.238C197.146 49.238 195.495 47.601 195.495 45.608C195.495 43.585 197.146 41.949 199.155 41.949C226.391 41.949 251.114 52.808 269.202 70.42C287.334 88.062 298.818 112.547 299.503 139.709C299.563 141.701 297.969 143.367 295.962 143.427C293.955 143.487 292.274 141.88 292.244 139.887C291.589 114.719 280.937 92.019 264.115 75.657C247.35 59.323 224.428 49.238 199.155 49.238ZM220.946 7.88495C213.598 2.94695 204.554 0.00195312 194.766 0.00195312C184.963 0.00195312 175.919 2.94695 168.572 7.88495C163.38 11.397 159.021 15.918 155.838 21.124C159.706 19.993 163.678 19.012 167.695 18.209L167.932 18.148L168.408 18.059L168.647 18.029L169.123 17.941L169.199 17.911L169.362 17.881L169.6 17.852L169.837 17.792L170.075 17.762L170.298 17.703L170.537 17.672L170.774 17.643L170.863 17.614L171.161 17.555C173.6 17.137 176.055 16.781 178.538 16.483L178.896 16.454L179.252 16.394H179.282L179.654 16.364L180.026 16.335L180.398 16.276L180.77 16.246L181.514 16.157L181.9 16.127L182.272 16.097L182.644 16.068H182.658L183.016 16.038L183.388 16.01L183.774 15.98L184.132 15.95L184.369 15.921H184.518L184.906 15.892L185.276 15.862L185.648 15.832C190.677 15.505 195.823 15.445 200.851 15.684H201.237L201.609 15.713H201.714L201.981 15.742H202.369L202.756 15.772L203.112 15.802H203.5L203.886 15.831L204.258 15.861L204.63 15.891L205.002 15.92H205.15L205.387 15.949L205.759 15.979L206.147 16.009L206.503 16.037L206.86 16.067H206.89L207.26 16.096L207.632 16.126L208.02 16.156L208.764 16.245L209.12 16.275L209.508 16.334L209.878 16.363L210.25 16.393H210.266L210.622 16.453L210.994 16.482C213.478 16.78 215.933 17.136 218.373 17.554L218.669 17.613L218.745 17.642L218.981 17.671L219.22 17.702L219.458 17.761L219.695 17.791L219.918 17.851L220.156 17.88L220.335 17.91L220.395 17.94L220.871 18.028L221.11 18.058L221.586 18.147L221.824 18.208C225.839 19.011 229.811 19.992 233.693 21.123C230.512 15.918 226.139 11.396 220.946 7.88495ZM103.896 366.167L90.2854 342.634L11.7294 373.99L37.4484 418.527C53.7664 405.646 52.2644 406.835 103.896 366.167ZM299.234 342.604L285.638 366.167L352.07 418.527L377.775 373.99L299.234 342.604ZM41.5234 443.755C39.5164 443.755 37.8654 442.118 37.8654 440.096C37.8654 438.074 39.5164 436.437 41.5234 436.437H269.186C271.196 436.437 272.832 438.074 272.832 440.096C272.832 442.118 271.196 443.755 269.186 443.755H41.5234ZM163.439 459.999C161.432 459.999 159.794 458.362 159.794 456.339C159.794 454.316 161.431 452.681 163.439 452.681H339.589C341.612 452.681 343.25 454.316 343.25 456.339C343.25 458.362 341.612 459.999 339.589 459.999H163.439ZM357.618 459.999C355.611 459.999 353.96 458.362 353.96 456.339C353.96 454.316 355.611 452.681 357.618 452.681H379.649C381.672 452.681 383.308 454.316 383.308 456.339C383.308 458.362 381.672 459.999 379.649 459.999H357.618ZM4.35138 459.611C2.32838 459.611 0.692383 457.975 0.692383 455.952C0.692383 453.93 2.32738 452.294 4.35138 452.294H87.8304C89.8394 452.294 91.4914 453.93 91.4914 455.952C91.4914 457.975 89.8404 459.611 87.8304 459.611H4.35138ZM91.3704 62.447H85.6434C73.4614 62.447 62.1554 58.401 53.0384 51.588C47.0724 47.154 42.0454 41.503 38.2974 35.047L38.2674 36.8019C38.2674 48.5839 42.6104 59.383 49.7804 67.684C56.5484 75.508 65.8314 81.129 76.3334 83.243C77.6864 80.982 79.0994 78.722 80.5734 76.52L80.7064 76.311L80.8394 76.102L80.9884 75.924L81.4044 75.299L81.5394 75.091L81.6724 74.883L81.8214 74.703L82.0884 74.287L82.1334 74.228L82.2374 74.079L82.3864 73.9L82.5194 73.691L82.6524 73.484L82.8014 73.276L82.9504 73.097L83.0694 72.888H83.0994L83.2324 72.681L83.3664 72.501L83.5154 72.294L83.6644 72.085L83.8134 71.907L83.9464 71.698L84.0204 71.579L84.0954 71.489L84.2294 71.311L84.3784 71.102L84.5254 70.924L84.8234 70.537L84.9724 70.329L85.0024 70.299L85.1224 70.12L85.2094 70.002L85.2994 69.883L85.4784 69.645L85.5824 69.526L85.8654 69.139L85.9544 69.02L85.9844 68.991L86.0444 68.901L86.1484 68.783L86.2534 68.663L86.4304 68.426L86.5194 68.307L86.6244 68.188L86.7284 68.04L86.8174 67.921L86.9074 67.803L86.9814 67.713L87.0114 67.684L87.1154 67.564L87.2044 67.446L87.2934 67.327L87.3984 67.208L87.5024 67.089L87.5914 66.97L87.6804 66.851L87.7844 66.732L87.8884 66.613L87.9784 66.495L87.9944 66.465L88.0824 66.346L88.1874 66.228L88.2774 66.109L88.3664 65.989L88.4704 65.872L88.5744 65.752L88.6634 65.633L88.7674 65.515L88.8724 65.396L88.9614 65.277L89.0214 65.217L89.0654 65.157L89.1694 65.038L89.2594 64.919L89.3784 64.8L89.4674 64.681L89.5574 64.563L89.6744 64.443L89.7644 64.324L89.8694 64.207L90.4784 63.492L90.5684 63.373L91.3704 62.447Z" fill="white"/>
</svg>
