<svg width="79" height="74" viewBox="0 0 79 74" fill="none" xmlns="http://www.w3.org/2000/svg">
<path d="M76.5998 70.6999H62.2998C71.6998 65.9999 78.1998 56.2999 78.1998 45.0999V39.7999C78.1998 38.9999 77.4998 38.2999 76.6998 38.2999H5.69981C4.89981 38.2999 4.19981 38.9999 4.19981 39.7999V45.0999C4.19981 56.2999 10.6998 65.9999 20.0998 70.6999H5.69981C4.89981 70.6999 4.19981 71.3999 4.19981 72.1999C4.19981 72.9999 4.89981 73.6999 5.69981 73.6999H32.6998C32.7998 73.6999 32.7998 73.6999 32.8998 73.6999H49.6998C49.7998 73.6999 49.7998 73.6999 49.8998 73.6999H76.8998C77.6998 73.6999 78.3998 72.9999 78.3998 72.1999C78.3998 71.3999 77.4998 70.6999 76.5998 70.6999ZM7.19981 45.0999V41.2999H75.1998V45.0999C75.1998 59.1999 63.7998 70.5999 49.6998 70.6999H32.5998C18.5998 70.6999 7.19981 59.1999 7.19981 45.0999ZM78.0998 25.5999C78.0998 19.0999 72.7998 13.7999 66.2998 13.7999C62.6998 13.7999 59.3998 15.3999 57.1998 18.0999C55.2998 17.6999 53.1998 17.6999 51.2998 18.2999C51.0998 17.7999 50.8998 17.3999 50.6998 16.8999C50.1998 15.8999 49.6998 14.7999 49.2998 13.7999C46.5998 7.99993 44.4998 3.39993 41.1998 2.09993C39.8998 1.59993 38.3998 1.69993 36.9998 2.39993C32.9998 4.29993 28.7998 10.6999 28.0998 17.6999C24.8998 15.4999 22.9998 11.5999 21.2998 8.09993C19.2998 3.79993 17.0998 -0.600073 12.6998 0.599927C7.89981 1.89993 2.99981 7.49993 1.29981 13.5999C-0.300189 19.1999 0.899811 24.4999 4.59981 28.5999C4.39981 28.8999 4.29981 29.1999 4.29981 29.4999V39.6999C4.29981 40.4999 4.99981 41.1999 5.79981 41.1999H76.7998C77.5998 41.1999 78.2998 40.4999 78.2998 39.6999V29.5999C78.2998 29.1999 78.0998 28.8999 77.8998 28.5999C77.9998 27.5999 78.0998 26.5999 78.0998 25.5999ZM66.2998 16.7999C71.1998 16.7999 75.0998 20.7999 75.0998 25.5999C75.0998 26.4999 74.9998 27.2999 74.6998 28.0999H57.8998V27.9999C57.7998 27.6999 57.6998 27.3999 57.6998 26.9999C57.6998 26.8999 57.6998 26.7999 57.6998 26.6999C57.6998 26.2999 57.5998 25.8999 57.5998 25.5999C57.5998 25.0999 57.5998 24.5999 57.6998 24.1999C57.7998 23.3999 58.0998 22.5999 58.3998 21.7999C58.3998 21.6999 58.4998 21.5999 58.5998 21.4999C58.7998 21.1999 58.8998 20.8999 59.0998 20.5999C60.6998 18.1999 63.3998 16.7999 66.2998 16.7999ZM55.4998 20.8999C55.4998 20.8999 55.4998 20.9999 55.3998 21.0999C55.2998 21.3999 55.1998 21.6999 55.0998 21.8999C55.0998 21.9999 55.0998 21.9999 54.9998 22.0999C54.8998 22.3999 54.7998 22.7999 54.6998 23.0999C54.6998 23.1999 54.6998 23.2999 54.6998 23.3999C54.5998 23.6999 54.5998 23.9999 54.5998 24.1999C54.5998 24.2999 54.5998 24.3999 54.5998 24.4999C54.5998 24.8999 54.4998 25.1999 54.4998 25.5999C54.4998 25.9999 54.4998 26.3999 54.5998 26.7999C54.5998 26.8999 54.5998 27.0999 54.6998 27.1999C54.6998 27.4999 54.7998 27.6999 54.7998 27.9999V28.0999H53.3998C53.3998 27.9999 53.3998 27.8999 53.3998 27.7999C53.3998 27.3999 53.3998 26.9999 53.2998 26.5999C53.2998 26.4999 53.2998 26.2999 53.2998 26.1999C53.2998 25.6999 53.1998 25.1999 53.0998 24.6999C53.0998 24.5999 53.0998 24.4999 52.9998 24.3999C52.8998 23.9999 52.7998 23.5999 52.7998 23.0999C52.7998 22.8999 52.6998 22.7999 52.6998 22.5999C52.5998 22.1999 52.4998 21.6999 52.2998 21.2999C52.2998 21.1999 52.2998 21.0999 52.1998 21.0999C53.2998 20.7999 54.3998 20.7999 55.4998 20.8999ZM38.1998 5.19993C39.1998 4.79993 39.6998 4.89993 40.0998 4.99993C42.2998 5.79993 44.2998 10.2999 46.4998 15.0999C46.9998 16.0999 47.3998 17.0999 47.8998 18.1999C48.2998 18.9999 48.5998 19.7999 48.8998 20.6999C49.0998 21.2999 49.2998 21.8999 49.3998 22.3999C49.3998 22.4999 49.4998 22.5999 49.4998 22.6999C49.5998 23.1999 49.7998 23.7999 49.8998 24.2999C49.8998 24.3999 49.8998 24.4999 49.9998 24.5999C50.0998 25.0999 50.1998 25.6999 50.1998 26.1999C50.2998 26.6999 50.2998 27.2999 50.2998 27.7999C50.2998 27.8999 50.2998 27.8999 50.2998 27.9999H42.1998C40.2998 25.1999 40.8998 22.8999 40.8998 22.6999C41.0998 21.8999 40.6998 21.0999 39.8998 20.7999C39.0998 20.5999 38.2998 20.9999 37.9998 21.7999C37.9998 21.8999 37.1998 24.5999 38.6998 27.8999H33.2998C33.1998 27.6999 33.0998 27.4999 32.9998 27.2999C32.8998 27.1999 32.7998 26.9999 32.7998 26.8999C32.4998 26.3999 32.2998 25.8999 31.9998 25.3999C31.1998 23.6999 30.7998 21.8999 30.7998 19.9999C30.6998 13.7999 34.6998 6.89993 38.1998 5.19993ZM4.09981 14.4999C5.69981 8.79993 10.0998 4.39993 13.3998 3.59993C15.2998 3.09993 16.3998 4.99993 18.5998 9.49993C20.5998 13.6999 22.9998 18.8999 27.9998 21.2999C27.9998 21.3999 27.9998 21.5999 28.0998 21.6999C28.0998 21.8999 28.0998 22.0999 28.1998 22.2999C28.1998 22.5999 28.2998 22.9999 28.3998 23.2999C28.3998 23.4999 28.4998 23.6999 28.4998 23.8999C28.5998 24.1999 28.6998 24.5999 28.7998 24.8999C28.8998 25.0999 28.8998 25.1999 28.9998 25.3999C29.1998 25.8999 29.3998 26.3999 29.5998 26.8999C29.7998 27.2999 29.9998 27.6999 30.1998 28.0999H20.9998C14.6998 25.0999 15.7998 19.8999 15.8998 19.5999C16.0998 18.7999 15.5998 17.9999 14.7998 17.7999C13.9998 17.5999 13.1998 18.0999 12.9998 18.8999C12.4998 20.9999 12.6998 24.8999 15.8998 28.0999H8.29981C7.89981 27.6999 7.49981 27.2999 7.19981 26.7999C2.89981 22.6999 3.19981 17.7999 4.09981 14.4999ZM75.0998 38.2999H7.09981V31.0999H7.29981H32.5998H51.7998H56.7998H75.0998V38.2999ZM30.2998 66.1999C22.5998 66.1999 19.2998 60.1999 18.5998 56.6999C18.3998 55.8999 18.9998 55.0999 19.7998 54.8999C20.5998 54.6999 21.3998 55.2999 21.5998 56.0999C21.6998 56.3999 23.3998 64.2999 32.1998 62.9999C32.9998 62.8999 33.7998 63.4999 33.8998 64.2999C33.9998 65.0999 33.3998 65.8999 32.5998 65.9999C31.7998 66.1999 30.9998 66.1999 30.2998 66.1999Z" fill="white"/>
</svg>
