<svg width="122" height="124" viewBox="0 0 122 124" fill="none" xmlns="http://www.w3.org/2000/svg">
<path d="M84.4375 50.1094C94.0002 56.9754 105.478 60.6646 117.25 60.6562V37.2188C108.548 37.2188 100.202 33.7617 94.0481 27.6082C87.8945 21.4547 84.4375 13.1087 84.4375 4.40625H61V79.4062C60.9998 82.3422 60.2118 85.2244 58.7181 87.752C57.2243 90.2796 55.0797 92.3601 52.5079 93.7764C49.9361 95.1927 47.0314 95.8929 44.0968 95.8039C41.1621 95.715 38.3051 94.8402 35.8238 93.2707C33.3425 91.7013 31.3278 89.4948 29.9899 86.8813C28.652 84.2679 28.0399 81.3433 28.2175 78.4127C28.3952 75.4821 29.3559 72.6529 30.9997 70.2201C32.6434 67.7874 34.9098 65.8403 37.5625 64.582V40.207C30.101 41.5448 23.176 44.9832 17.6003 50.1188C12.0246 55.2544 8.02965 61.874 6.08433 69.2006C4.139 76.5271 4.32407 84.2566 6.6178 91.4817C8.91153 98.7067 13.2187 105.128 19.0338 109.99C24.8489 114.853 31.9306 117.956 39.4475 118.935C46.9644 119.915 54.6047 118.729 61.4714 115.518C68.3381 112.307 74.1464 107.204 78.2143 100.807C82.2823 94.4108 84.4412 86.9867 84.4375 79.4062V50.1094Z" stroke="white" stroke-width="8" stroke-linecap="round" stroke-linejoin="round"/>
</svg>
